<?xml version="1.0" encoding="utf-8"?>
<!-- Generator: Adobe Illustrator 22.1.0, SVG Export Plug-In . SVG Version: 6.00 Build 0)  -->
<svg version="1.1" id="Capa_1" xmlns="http://www.w3.org/2000/svg" xmlns:xlink="http://www.w3.org/1999/xlink" x="0px" y="0px"
	 viewBox="0 0 100 100" style="enable-background:new 0 0 100 100;" xml:space="preserve">
<style type="text/css">
	.st0{fill-rule:evenodd;clip-rule:evenodd;fill:#FFFFFF;}
</style>
<path class="st0" d="M95,0H5C2.2,0,0,2.2,0,5v60c0,2.8,2.2,5,5,5h1.7v-3.3H5c-0.9,0-1.7-0.8-1.7-1.7V5c0-0.9,0.7-1.7,1.7-1.7h90
	c0.9,0,1.7,0.8,1.7,1.7v60c0,0.9-0.8,1.7-1.7,1.7H79V70h16c2.8,0,5-2.2,5-5V5C100,2.2,97.8,0,95,0"/>
<path class="st0" d="M15,83.3V38.9h36.7v5.3H55V23.3c0-2.8-2.2-5-5-5H16.7c-2.8,0-5,2.2-5,5v60c0,2.8,2.2,5,5,5H25V85h-8.3
	C15.8,85,15,84.3,15,83.3 M16.7,21.7H50c0.9,0,1.7,0.8,1.7,1.7v12.2H15V23.3C15,22.4,15.8,21.7,16.7,21.7"/>
<path class="st0" d="M50,51.5c-12,0-21.7,9.7-21.7,21.7c0,2.9,0.6,5.8,1.7,8.4c0.3,0.6,0.9,1,1.5,1c0.2,0,0.4,0,0.6-0.1
	c0.8-0.4,1.2-1.3,0.9-2.2c-1-2.3-1.4-4.7-1.4-7.2c0-10.1,8.2-18.4,18.4-18.4s18.4,8.2,18.4,18.4c0,2.4-0.4,4.7-1.3,6.9
	c-0.3,0.9,0.1,1.8,0.9,2.2c0.9,0.3,1.8-0.1,2.2-0.9c1.1-2.6,1.6-5.3,1.6-8.1C71.7,61.2,62,51.5,50,51.5"/>
<path class="st0" d="M50,63.3c-5.5,0-10,4.9-10,10.8V100h3.3V74.1c0-4.1,3-7.5,6.7-7.5s6.7,3.4,6.7,7.5V100H60V74.1
	C60,68.2,55.5,63.3,50,63.3"/>
<path class="st0" d="M50,71.7c-1.8,0-3.3,1.5-3.3,3.3v5h6.7v-5C53.3,73.2,51.8,71.7,50,71.7"/>
<path class="st0" d="M84.5,41.8c0.7-2.7-0.7-6.1-3.8-6.9c-1.8-0.5-3.2,0.1-4.1,0.8c-0.5-1-1.4-2.2-3.2-2.6c-3.1-0.8-6,1.6-6.6,4.3
	c-1,3.9,5.2,11.1,5.9,11.9c0.1,0.1,0.3,0.2,0.4,0.3c0.2,0,0.3,0,0.5,0C74.6,49.1,83.5,45.7,84.5,41.8"/>
<path class="st0" d="M83.3,29.8c0.1,0,0.1,0.1,0.2,0.1s0.2,0,0.2-0.1c0.4-0.3,4-2.8,4-4.7c0-1.3-1-2.7-2.5-2.7
	c-0.9,0-1.4,0.4-1.8,0.8c-0.3-0.4-0.9-0.8-1.8-0.8c-1.5,0-2.5,1.4-2.5,2.7C79.3,27,82.9,29.6,83.3,29.8"/>
<path class="st0" d="M71.6,27.3c0.1,0,0.2,0,0.2,0c0.1,0,0.1-0.1,0.2-0.1c0.3-0.4,3.2-3.7,2.7-5.5c-0.3-1.3-1.6-2.3-3.1-2
	c-0.9,0.2-1.3,0.8-1.5,1.2c-0.4-0.3-1.1-0.6-1.9-0.4c-1.4,0.4-2.1,2-1.8,3.2C67,25.6,71.1,27.1,71.6,27.3"/>
<path class="st0" d="M31.7,31.6H35c0.9,0,1.7-0.8,1.7-1.7c0-0.9-0.7-1.7-1.7-1.7h-3.3c-0.9,0-1.7,0.7-1.7,1.7
	C30,30.8,30.7,31.6,31.7,31.6"/>
</svg>
