<?xml version="1.0" encoding="utf-8"?>
<!-- Generator: Adobe Illustrator 22.1.0, SVG Export Plug-In . SVG Version: 6.00 Build 0)  -->
<svg version="1.1" id="Capa_1" xmlns="http://www.w3.org/2000/svg" xmlns:xlink="http://www.w3.org/1999/xlink" x="0px" y="0px"
	 viewBox="0 0 100 100" style="enable-background:new 0 0 100 100;" xml:space="preserve">
<style type="text/css">
	.st0{fill:#FFFFFF;}
</style>
<path class="st0" d="M70,79.2c-9.6,0-17.5-7.9-17.5-17.5c0-1.4-1.1-2.5-2.5-2.5s-2.5,1.1-2.5,2.5c0,12.4,10.1,22.5,22.5,22.5
	c1.4,0,2.5-1.1,2.5-2.5C72.5,80.3,71.4,79.2,70,79.2z"/>
<path class="st0" d="M50,29.2c-17.9,0-32.5,14.6-32.5,32.5c0,1.4,1.1,2.5,2.5,2.5s2.5-1.1,2.5-2.5c0-15.2,12.3-27.5,27.5-27.5
	s27.5,12.3,27.5,27.5c0,4.1-3.4,7.5-7.5,7.5s-7.5-3.4-7.5-7.5c0-6.9-5.6-12.5-12.5-12.5s-12.5,5.6-12.5,12.5c0,4.4,0.9,8.6,2.6,12.7
	c1.6,3.9,4,7.3,7,10.3c3,3,6.5,5.3,10.3,7c0.3,0.1,0.6,0.2,1,0.2c1,0,1.9-0.6,2.3-1.5c0.5-1.3-0.1-2.7-1.3-3.3
	c-3.3-1.4-6.2-3.4-8.7-5.9c-2.5-2.5-4.5-5.5-5.9-8.7c-1.4-3.4-2.2-7-2.2-10.7c0-4.1,3.4-7.5,7.5-7.5s7.5,3.4,7.5,7.5
	c0,6.9,5.6,12.5,12.5,12.5s12.5-5.6,12.5-12.5C82.5,43.8,67.9,29.2,50,29.2L50,29.2z"/>
<path class="st0" d="M32.5,61.7c0-9.6,7.9-17.5,17.5-17.5s17.5,7.9,17.5,17.5c0,1.4,1.1,2.5,2.5,2.5s2.5-1.1,2.5-2.5
	c0-12.4-10.1-22.5-22.5-22.5S27.5,49.3,27.5,61.7c0,11.4,4.4,22,12.4,30.1c0.5,0.5,1.1,0.7,1.8,0.7c0.6,0,1.3-0.2,1.8-0.7
	c1-1,1-2.6,0-3.5C36.4,81.1,32.5,71.7,32.5,61.7L32.5,61.7z"/>
<path class="st0" d="M89.2,45.2c-2.1-5.1-5.2-9.6-9.1-13.5c-3.9-3.9-8.4-7-13.5-9.1c-5.2-2.2-10.8-3.3-16.5-3.3s-11.3,1.1-16.5,3.3
	c-5.1,2.1-9.6,5.2-13.5,9.1c-3.9,3.9-7,8.4-9.1,13.5c-0.5,1.3,0.1,2.7,1.3,3.3c1.3,0.5,2.7-0.1,3.3-1.3c1.9-4.5,4.6-8.5,8-11.9
	c3.4-3.4,7.5-6.1,11.9-8c4.6-2,9.5-2.9,14.6-2.9c5.1,0,10,1,14.6,2.9c4.5,1.9,8.5,4.6,11.9,8c3.4,3.4,6.1,7.5,8,11.9
	c0.4,1,1.3,1.5,2.3,1.5c0.3,0,0.7-0.1,1-0.2C89.1,47.9,89.7,46.4,89.2,45.2L89.2,45.2z"/>
<path class="st0" d="M16.4,28.1c9-9,20.9-13.9,33.6-13.9c12.7,0,24.6,4.9,33.6,13.9c0.5,0.5,1.1,0.7,1.8,0.7c0.6,0,1.3-0.2,1.8-0.7
	c1-1,1-2.6,0-3.5C77.2,14.7,64,9.2,50,9.2s-27.2,5.5-37.1,15.4c-1,1-1,2.6,0,3.5C13.9,29.1,15.4,29.1,16.4,28.1L16.4,28.1z"/>
</svg>
