<?xml version="1.0" encoding="utf-8"?>
<!-- Generator: Adobe Illustrator 22.1.0, SVG Export Plug-In . SVG Version: 6.00 Build 0)  -->
<svg version="1.1" id="Capa_1" xmlns="http://www.w3.org/2000/svg" xmlns:xlink="http://www.w3.org/1999/xlink" x="0px" y="0px"
	 viewBox="0 0 100 100" style="enable-background:new 0 0 100 100;" xml:space="preserve">
<style type="text/css">
	.st0{fill:#FFFFFF;}
</style>
<path class="st0" d="M30.6,51.7c0-2,1.7-3.7,3.7-3.7h37.5c2,0,3.7,1.7,3.7,3.7v5.5H30.6L30.6,51.7z M41.9,40.9
	c-1.4-1.8-1.1-4.5,0.8-5.9c0.7-0.6,1.6-0.9,2.6-0.9c1.3,0,2.5,0.6,3.3,1.6c0.7,0.9,1.4,4.7,1.6,8.9h-0.1
	C46,43.4,42.6,41.9,41.9,40.9L41.9,40.9z M57,35.8c0.8-1,2-1.6,3.3-1.6c0.9,0,1.8,0.3,2.6,0.9c1.8,1.4,2.2,4.1,0.8,5.9
	c-0.7,0.9-4.1,2.5-8.2,3.8h-0.1C55.7,40.4,56.3,36.7,57,35.8L57,35.8z M75.5,83.8c0,2-1.7,3.7-3.7,3.7H54.7V60.5h20.8L75.5,83.8z
	 M30.6,83.8V60.5h20.8v27.1H34.3C32.2,87.5,30.6,85.9,30.6,83.8L30.6,83.8z M34.3,90.8h37.5c3.9,0,7-3.1,7-7V51.7c0-3.9-3.1-7-7-7
	h-7.7c1-0.6,1.7-1.2,2.2-1.8c2.5-3.3,1.9-8-1.3-10.5c-1.4-1.1-3-1.6-4.6-1.6c-2.2,0-4.5,1-5.9,2.9c-0.8,1-1.3,2.7-1.6,4.7
	c-0.4-2-0.9-3.7-1.6-4.7c-1.5-1.9-3.7-2.9-5.9-2.9c-1.6,0-3.2,0.5-4.6,1.6c-3.3,2.5-3.9,7.2-1.3,10.5c0.5,0.6,1.2,1.2,2.2,1.8h-7.3
	c-3.9,0-7,3.1-7,7v32.1C27.3,87.7,30.4,90.8,34.3,90.8L34.3,90.8z"/>
<path class="st0" d="M78.4,13.2c-1.7-1.7-3.6-1.4-5-1.3c-1.3,0.1-1.8,0.2-2.3-0.3c-0.6-0.6-1.7-0.6-2.3,0c-0.6,0.6-0.6,1.7,0,2.3
	c1.2,1.2,2.5,1.4,3.7,1.4c0.4,0,0.9-0.1,1.3-0.1c1.3-0.1,1.8-0.2,2.3,0.3c0.5,0.5,0.5,1,0.3,2.3c0,0.4-0.1,0.8-0.1,1.3
	c0,1.2,0.2,2.5,1.4,3.7c1.2,1.2,2.5,1.4,3.7,1.4c0.4,0,0.9-0.1,1.3-0.1c1.3-0.2,1.8-0.2,2.3,0.3s0.5,1,0.3,2.3
	c0,0.4-0.1,0.8-0.1,1.3c0,1.2,0.2,2.5,1.4,3.7c0.3,0.3,0.7,0.5,1.2,0.5c0.4,0,0.8-0.2,1.2-0.5c0.6-0.6,0.6-1.7,0-2.3
	c-0.5-0.5-0.5-1-0.3-2.3c0.2-1.4,0.4-3.3-1.3-5c-1.7-1.7-3.6-1.4-5-1.3c-1.3,0.2-1.8,0.2-2.3-0.3c-0.5-0.5-0.5-1-0.3-2.3
	C79.9,16.7,80.1,14.8,78.4,13.2L78.4,13.2z"/>
<path class="st0" d="M12.2,80.4c0.4,0.8,0.4,0.9,0.3,1.1c-0.1,0.2-0.2,0.3-1,0.5c-0.1,0-0.3,0.1-0.4,0.1c-0.9,0.3-2.1,0.8-2.8,2.2
	c-0.4,0.8,0,1.8,0.8,2.2c0.2,0.1,0.4,0.1,0.7,0.1c0.6,0,1.2-0.4,1.5-1c0.1-0.2,0.2-0.3,1-0.5c1-0.3,2.5-0.6,3.2-2.4
	c0.8-1.7,0-3.1-0.4-4c-0.4-0.8-0.4-0.9-0.3-1.1c0.1-0.2,0.2-0.3,1-0.5c1-0.3,2.5-0.6,3.2-2.4c0.8-1.7,0.1-3.1-0.4-4
	c-0.4-0.8-0.4-0.9-0.3-1.1c0.4-0.8,0-1.8-0.8-2.2c-0.8-0.4-1.8,0-2.2,0.8c-0.7,1.5-0.2,2.7,0.2,3.6c0.1,0.1,0.1,0.3,0.2,0.4
	c0.4,0.8,0.4,0.9,0.3,1.1c-0.1,0.2-0.2,0.3-1,0.5c-0.1,0-0.3,0.1-0.4,0.1c-0.9,0.3-2.1,0.8-2.8,2.2S11.6,79.1,12,80
	C12.1,80.2,12.1,80.3,12.2,80.4L12.2,80.4z"/>
<polygon class="st0" points="92.7,68.5 88.7,72.5 84.7,68.5 82.4,70.8 86.4,74.8 82.4,78.8 83.5,79.9 84.7,81.1 88.7,77.1 
	92.7,81.1 95,78.8 91,74.8 95,70.8 "/>
<polygon class="st0" points="58.5,10.3 57.3,9.2 53.3,13.2 49.3,9.2 47,11.5 51,15.5 47,19.5 49.3,21.8 53.3,17.8 57.3,21.8 
	59.6,19.5 55.6,15.5 59.6,11.5 "/>
<path class="st0" d="M94.6,43.2c0,4.1-6.2,4.1-6.2,0C88.5,39,94.6,39,94.6,43.2"/>
<path class="st0" d="M11.2,52.1c0,4.1-6.2,4.1-6.2,0C5,48,11.2,48,11.2,52.1"/>
<path class="st0" d="M19.5,19.8c2,0,3.6,1.6,3.6,3.6c0,2-1.6,3.6-3.6,3.6c-2,0-3.6-1.6-3.6-3.6S17.5,19.8,19.5,19.8z M19.5,30.3
	c3.8,0,6.9-3.1,6.9-6.9c0-3.8-3.1-6.9-6.9-6.9c-3.8,0-6.9,3.1-6.9,6.9C12.6,27.2,15.7,30.3,19.5,30.3z"/>
</svg>
