<?xml version="1.0" standalone="no"?>
<!DOCTYPE svg PUBLIC "-//W3C//DTD SVG 20010904//EN"
 "http://www.w3.org/TR/2001/REC-SVG-20010904/DTD/svg10.dtd">
<svg version="1.0" xmlns="http://www.w3.org/2000/svg"
 width="700.000000pt" height="700.000000pt" viewBox="0 0 700.000000 700.000000"
 preserveAspectRatio="xMidYMid meet">
<metadata>
Created by potrace 1.11, written by Peter Selinger 2001-2013
</metadata>
<g transform="translate(0.000000,700.000000) scale(0.100000,-0.100000)"
fill="#000000" stroke="none">
<path d="M3215 6994 c-695 -70 -1274 -289 -1800 -679 -790 -585 -1278 -1439
-1397 -2440 -16 -139 -16 -585 0 -720 80 -658 295 -1208 668 -1712 630 -850
1603 -1367 2654 -1411 603 -26 1154 86 1680 339 578 279 1053 693 1405 1224
291 441 462 888 547 1435 20 129 22 182 22 485 0 372 -10 471 -74 760 -294
1320 -1338 2356 -2670 2649 -248 54 -384 68 -700 71 -162 2 -313 1 -335 -1z
m435 -1854 c128 -37 224 -94 321 -190 73 -72 94 -101 132 -180 69 -144 77
-198 77 -545 l0 -295 -289 0 -290 0 -3 293 c-3 262 -5 296 -21 320 -30 46 -75
67 -142 67 -71 0 -115 -22 -142 -72 -17 -31 -18 -89 -18 -1028 0 -986 0 -995
21 -1030 32 -55 77 -80 144 -80 63 0 106 22 144 73 20 27 21 40 21 315 l0 287
-82 3 -83 3 0 214 0 215 380 0 380 0 0 -795 0 -795 -178 0 -179 0 -28 101
c-16 55 -32 102 -36 105 -4 2 -16 -11 -26 -29 -86 -145 -246 -229 -438 -229
-331 -1 -582 205 -649 534 -14 67 -16 207 -16 1111 0 989 1 1037 19 1109 71
277 304 482 609 538 81 15 288 4 372 -20z m1720 19 c218 -35 403 -151 520
-325 61 -92 97 -202 111 -339 6 -64 9 -452 7 -1056 -4 -948 -4 -954 -26 -1033
-25 -90 -84 -206 -140 -274 -199 -243 -579 -337 -904 -223 -113 40 -183 86
-278 181 -68 68 -94 102 -128 170 -81 166 -77 95 -77 1255 0 1158 -4 1087 76
1254 33 68 58 101 128 170 47 47 112 101 143 120 67 39 200 87 278 100 77 12
214 13 290 0z m-2930 -319 l0 -270 -330 0 -330 0 0 -380 0 -380 223 -2 222 -3
3 -247 2 -248 -225 0 -225 0 0 -415 0 -415 330 0 330 0 0 -280 0 -280 -640 0
-640 0 0 1595 0 1595 640 0 640 0 0 -270z"/>
<path d="M5142 4590 c-65 -40 -62 11 -62 -1078 l0 -989 23 -34 c58 -87 195
-91 247 -7 20 33 20 44 18 1045 l-3 1013 -32 32 c-28 28 -40 32 -95 36 -51 2
-70 -1 -96 -18z"/>
</g>
</svg>
